<?xml version="1.0" encoding="utf-8"?>
<!-- Generator: Adobe Illustrator 27.1.0, SVG Export Plug-In . SVG Version: 6.00 Build 0)  -->
<svg version="1.1" id="Layer_1" xmlns="http://www.w3.org/2000/svg" xmlns:xlink="http://www.w3.org/1999/xlink" x="0px" y="0px"
	 viewBox="0 0 185 166" style="enable-background:new 0 0 185 166;" xml:space="preserve">
<style type="text/css">
	.st0{fill:#FFFFFF;}
	.st1{fill:#A6D5E0;}
	.st2{fill:#E57791;}
	.st3{fill:#99FF00;}
	.st4{fill:#99FF00;stroke:#99FF00;stroke-miterlimit:10;}
	.st5{fill:#43747C;}
	.st6{fill:#59929B;}
	.st7{fill:#80B8C1;}
	.st8{fill:#C9EEF4;}
	.st9{fill:#9B3A56;}
	.st10{fill:#C15373;}
	.st11{fill:#F495B0;}
	.st12{fill:#FFAEC5;}
</style>
<path d="M109.6-202.9c3.2-12.6-2.5-25.6-6-37.6c-2.8-9.9-18.5-6.3-15.6,3.7c1.4,4.9,2.8,9.7,4.2,14.6c1,3.5,2.3,7.2,2.4,10.8
	c0.1,3.3-1.3,7.8-3.8,11c-1-5.5-2.4-10.9-4.7-16c-4.1-9.4-18.2-1.9-14.1,7.5c0.6,1.2,1,2.5,1.4,3.8c-1.3-2.1-2.3-4.1-2.9-5.6
	c-3.3-8-3.4-16.8-2.6-25.2c0.9-10.3-15.1-10.8-16-0.6c-1.2,12.5,0,25.7,6.2,36.9c3.9,7.1,10.5,14.7,18.5,17.8
	c0.4,5.9,0.8,11.8,1.1,17.7c1.1,16.9,2.2,33.8,3.2,50.8c0.3,4.3,3.1,8.1,7.7,8.3c4,0.2,8.6-3.3,8.3-7.7c-1.2-18.2-2.3-36.5-3.5-54.7
	c-0.3-4.9-0.5-9.9-0.8-14.8C101-186.1,107.5-194.5,109.6-202.9z"/>
<path d="M-444.6,21.9c0.5,0.2,1,0.4,1.4,0.5c-0.6-0.5-1.3-1-2.2-1.4c-0.7-0.3-1.8-0.8-3-1.1C-447.1,20.7-445.9,21.4-444.6,21.9z"/>
<path d="M-370.4,53.2c1.5-1.1,1.3-5.2,1.1-6.8c-0.5-2.7-2-5.2-3.7-7.4c-3.7-4.8-9-8.7-14.6-11c-6.2-2.5-11.6,0.3-17.8-0.7
	c-5.9-0.9-9.2-5.1-11.8-10.1c-1.3-2.5-4-9.1-7.6-9.8c0,0.1-0.3,0.4-0.6,1.4c-0.4,1.5-0.4,3.2-0.3,4.7c0,1.9,0.2,3.8,0.5,5.7
	c3.5,0.2,6.9,1.1,9.8,2.8c4.8,2.9,9.2,8.9,9,14.6c-0.1,3.1-1,6-0.9,9.2c0,1.2-0.1,3.3,0.8,4.3c0.1,0,0.3-0.1,0.6-0.2
	c4.7-1.4,8.1-7.6,11.6-10.8c3.1-2.8,7-5.9,11.4-6.1c4.4-0.2,7.7,2.6,9.4,6.5c1.3,2.9,1.9,6,1.6,9.1C-372,50.3-373.5,55.5-370.4,53.2
	z"/>
<path d="M-433.5,8.8c0.4-2.3,1.1-4.8,2.6-6.7c-7,1.3-13.8,4.1-21,4.1c-7.7,0-14.1-0.5-21.2,3.3c-4.3,2.3-8,5.7-10.7,9.7
	c-15.3,0.1-28.1,11.9-28,28.3c0,0.4,0,0.8,0.1,1.1c-0.2,1-0.4,2-0.4,3c0,6.1,7.3,11.2,12.3,13.5c4.5,2.1,9.4,3.1,14.3,3.7
	c-2.8-2.3-5.7-4.5-8.2-7.1c-3.7-3.8-5.9-9-4.4-14.4c1.6-6.2,8.2-8.4,13.9-8.7c2-0.1,4,0.8,5.8,0.8c2.5-0.1,2.3-1.3,2.9-3.3
	c1.1-3.3,3.3-5.4,6.8-6.4c6.8-2,13.7,2.4,15.2,9.2c0.8,3.5,0,7-1.8,10.1c-1.2,2-4.9,4.9-5,7.3c-0.2,7.4,13.5,3.9,15.5-0.6
	c1.7-3.9,0.7-9.3,1.2-13.5c0.5-3.7,1.9-7.2,2.7-10.9c0-0.1,0-0.3,0.1-0.4c-6.5,0.2-11.7-4.5-17.4-7.2c-1.6-0.7-2.3-3-1.8-4.5
	c2.6-8.8,12.5-8.2,19.2-4.6c3.2,1.7,5.2,3.9,6.4,6.3c0,0,0,0,0,0c0.4-0.1,0.7-0.2,1.1-0.3C-434,16.4-434,12.4-433.5,8.8z
	 M-465.7,20.6c-7.3,7.3-14.2,12.2-24.7,13.5c-5.1,0.6-5-7.4,0-8c8.2-1,13.4-5.5,19.1-11.2C-467.7,11.3-462.1,17-465.7,20.6z"/>
<path d="M-356.7,41.8c-3.6-10.3-11.4-19.1-21.4-23.6c-5.5-2.5-10.7-3-16.6-3.7c-5.6-0.6-8.6-7.2-13.5-9.9c-3.6-2-7.6-3-11.6-3.2
	c1.7,1.1,3.3,2.5,4.5,3.9c4.5,4.9,5.5,14.9,13.7,14.3c3.9-0.3,7.2-1.3,11.1-0.6c3,0.5,6,1.7,8.7,3c11.1,5.5,23.4,17.6,20,31.2
	c-1.3,5.3-5.7,9.6-11.5,8.2c-3.3-0.8-6.3-2.8-7-6.3c-0.7-3.5,1-6.8,0-10.4c-0.8-2.9-1.5-4.1-4.3-2.8c-2.5,1.2-4.6,3.4-6.5,5.4
	c-3.9,4.1-7.8,9.4-13.7,10.7c-5.4,1.2-9-2.7-10.1-7.7c-0.7-3.4-0.6-7.2-0.1-10.6c0.6-3.8,0.4-6-2.6-9c-1.4-1.5-3.1-2.4-5-2.9
	c1.6,2.8,4,5,5.8,7.8c2.5,3.9,1.5,8,0,12.1c-0.8,2.2-2.9,5.1-3.1,7.4c-0.2,2.3,1.7,5.7,2.7,7.8c2.2,4.5,6.1,3.2,10.5,2.9
	c2.6-0.2,8.9,0.8,10.7-1.5c1.3-1.6,1-4.7,2.5-6.6c3.1-4.1,10-0.1,6.9,4c-1.5,2-1.6,4.3-2.5,6.3c4.8-0.3,9.5-0.7,14.2-1.4
	c5.8-0.8,12.4-1.5,16.5-6.2C-353.6,55.5-354.6,47.8-356.7,41.8z"/>
<path d="M-427.3,52.5c1.1-3.5,4.2-7.2,4.2-11c0-2.4-2.6-4.3-4-6.2c-1.7-2.2-3-4.7-4.1-7.3c-0.6,0.2-1.2,0.4-1.7,0.6
	c-0.1,3.6-1,7.5-2,11.2c-2.1,8.1,0.9,18.1-6.4,24.2c-5.5,4.6-14.4,5.9-20.7,2.2c-7.4-4.3-7.2-12.1-2.4-18.2c1.4-1.8,3.4-3.8,3.4-6.2
	c0-2.3-1.5-4.7-4-4.7c-3.4,0-3.7,5.9-6.1,8c-3.9,3.3-7.1,1.8-11.6,1.5c-3.3-0.3-7.6,0.7-7.7,4.4c-0.1,5.3,7.9,9.8,11.5,12.8
	c1.9,1.6,4.1,3.4,6.2,5.6c3.3,0,6.6-0.1,9.8-0.1c13.4-0.1,26.7-0.1,40.1-0.2C-426.2,64.4-428.7,57.2-427.3,52.5z"/>
<path d="M27.3-147.2l-8.5-0.1c-0.3-18.5-0.6-37-0.9-55.4c-0.1-5-0.1-10-0.2-15.1c-7.1-0.2-14.3-0.5-21.3-0.6c-1.1,0-2.1,0-3.1,0
	c0.1,7.8,0.4,15.7,0.5,23.5c0.2,12.1,0.1,24.2-1.3,36.3c-0.4,3.5-1.4,7.2-1.7,10.8l-12.1-0.2c-12.3-0.2-21.8,4.5-28.4,14.2
	c-6.7,9.7-10.2,23.8-10.4,42.2l-0.6,39.3l35.4,0.6l0.5-33.6c0.1-5.8,0.6-9.7,1.4-11.6c0.8-1.9,2.6-2.8,5.2-2.8c2.3,0,3.9,1,4.9,2.8
	s1.4,5,1.3,9.4l-0.5,32.6L15-54.2l0.4-27.6c0.1-5.3,0.6-8.9,1.6-10.9c1-2,2.7-3,5.1-3c4.1,0.1,6.1,4.4,6,13l-0.5,31.9l35.6,0.6
	l0.7-43.5c0.3-16.8-2.8-29.8-9.2-39.2C48.3-142.3,39.2-147,27.3-147.2z"/>
<g>
	<path d="M-394.1-261.4c-5.2-6.2-12.8-9.3-22.6-9.3c-6.2,0-11.4,1.2-15.6,3.6c-4.2,2.4-8.2,6.4-11.9,11.9
		c-6-10.3-14.7-15.5-25.9-15.5c-9.5,0-17.2,3.1-23.1,9.3c-5.9,6.2-8.9,14.2-8.9,24v41.6c1.5,0.3,3.1,0.8,4.5,1.4
		c4,1.5,7.6,3.9,10.5,6.9c1.5,1.6,2.7,3.7,4.5,5c2.1,1.4,4.6,1.1,6.9,0.3c2-0.7,4-1.4,6.1-2.2v-45.2c0-5.8,1.6-8.7,4.8-8.7
		c1.7,0,2.9,0.6,3.5,1.8c0.6,1.2,0.9,3.5,0.9,7v42.2c5.2-1.2,10.4-1.4,15.5,0.9c2,0.9,3.9,2.2,5.3,3.9c1.4,1.6,2.5,3.5,3.8,5.2
		c1.1,1.5,2.4,2.9,4,3.9c1.2,0.7,2.5,1,3.9,1.1v-57.8c0-5.4,1.6-8.2,4.8-8.2c1.7,0,2.8,0.6,3.4,1.7c0.6,1.1,0.9,3.5,0.9,7v57.8
		c6.4,1.5,11.9,5.9,15.2,11.8c0.3,0.5,0.6,1.1,0.9,1.7h16.5v-76.1C-386.2-246.3-388.8-255.2-394.1-261.4z"/>
</g>
<g>
	<path d="M-265.3-153h-78.9c-9.8,0-17.8-3-24-8.9c-6.2-5.9-9.3-13.6-9.3-23.1c0-11.2,5.2-19.9,15.5-25.9c-5.6-3.7-9.5-7.6-11.9-11.9
		s-3.6-9.4-3.6-15.6c0-9.8,3.1-17.4,9.3-22.6c6.2-5.2,15.1-7.9,26.8-7.9h76.1v32.6h-71.2c-3.5,0-5.9,0.3-7,0.8s-1.7,1.7-1.7,3.4
		c0,3.2,2.7,4.8,8.2,4.8h45.4v32.6h-44.8c-3.5,0-5.8,0.3-7,0.9c-1.2,0.6-1.8,1.7-1.8,3.4c0,3.2,2.9,4.8,8.7,4.8h71.2L-265.3-153
		L-265.3-153z"/>
</g>
<rect x="-394" y="-223.1" width="91.6" height="27"/>
<path class="st0" d="M99.8-286.5c-0.3-2.1-0.8-4.2-1.7-6.2c-2.6-6.2-7.7-11.4-13.9-14.1c-1.4-0.6-2.8-1.1-4.3-1.4
	c-0.7-0.2-1.4-0.3-2.2-0.4c-1-0.1-2.1-0.2-3.1-0.1c-1.2,0-2.5,0.2-3.8,0.1c-0.3,0-0.5,0-0.8-0.1c-4.3-0.8-6.4-5.7-8.9-8.8
	c-5.6-7.1-14.7-7.9-22.9-6.2c-1.6,0.3-3.2,0.7-4.7,1.2c-1.5,0.5-3,1-4.5,1.5c-1.4,0.5-2.7,1-4.1,1.5c-2.5,1-5.9,2.7-8.3,0.5
	c-0.9-0.8-1.6-1.9-2.4-2.9c-0.7-0.9-1.5-1.7-2.4-2.5c-1.6-1.5-3.3-2.8-5.1-3.8c-3.1-1.9-6.6-3.2-10.3-4c-5.1-1.1-10.4-1-15.4,0.5
	c-1.2,0.3-2.4,0.8-3.5,1.3c-0.5-0.2-1.2-0.1-1.4,0.6c0,0,0,0,0,0c-0.4,0.2-0.7,0.4-1.1,0.5c-0.9,0.5-0.4,1.8,0.5,1.8
	c-3,11.7-6,23.4-8.9,35c-0.3,1-0.7,2.2-0.2,3.2c0.5,1,1.5,1.3,2.5,1.4c3.2,0.5,6.5,0.7,9.7,1.1c6.3,0.7,12.7,1.4,19,2.1
	c12.7,1.4,25.5,2.9,38.2,4.3c12.8,1.4,25.7,2.7,38.6,3.1c6.4,0.2,12.9,0.2,19.3-0.2c2.1-0.1,4.6-0.4,5.6-2.6
	C100.3-281.8,100.1-284.4,99.8-286.5z M97.9-281.8c-0.2,1.5-0.8,2.2-2.3,2.5c-1.3,0.2-2.8,0.2-4.2,0.3c-3.1,0.1-6.1,0.2-9.2,0.2
	c-24.4,0-48.7-3.5-72.9-6.2c-12-1.3-24-2.7-36-4c-0.8-0.1-1.6-0.2-2.5-0.3c-0.6-0.1-1.4,0-1.9-0.2c-0.9-0.4-0.6-1-0.4-1.9
	c0.2-0.9,0.5-1.8,0.7-2.6c0.7-2.9,1.5-5.8,2.2-8.6c1.5-5.9,3-11.9,4.5-17.8c0.7-2.6,1.3-5.2,2-7.7c5.8-2.6,12.4-3.1,18.6-1.7
	c1.5,0.3,3.1,0.8,4.5,1.4c4,1.5,7.6,3.9,10.5,6.9c1.5,1.6,2.7,3.7,4.5,5c2.1,1.4,4.6,1,6.9,0.3c2-0.7,4-1.4,6.1-2.2
	c3-1.1,6.1-2.2,9.1-2.9c5.2-1.2,10.4-1.5,15.5,0.9c2.1,0.9,3.9,2.2,5.3,3.9c1.4,1.6,2.5,3.5,3.8,5.2c1.1,1.5,2.4,2.9,4,3.9
	c1.2,0.7,2.5,1,3.9,1.1c0.9,0.1,1.8,0,2.8,0c2.2-0.1,4.3,0.1,6.3,0.6c6.4,1.5,11.9,5.9,15.2,11.8c0.3,0.5,0.6,1.1,0.8,1.7
	C97.5-289.3,98.3-285.5,97.9-281.8z"/>
<path class="st0" d="M-402.7-158.5h-16v-13.4c6.4,1.5,11.9,5.9,15.2,11.8C-403.3-159.6-403-159.1-402.7-158.5z"/>
<path class="st0" d="M-427.8-172.4v13.9h-32.6v-29c5.2-1.2,10.4-1.4,15.5,0.9c2,0.9,3.9,2.2,5.3,3.9c1.4,1.6,2.5,3.5,3.8,5.2
	c1.1,1.5,2.4,2.9,4,3.9C-430.5-172.8-429.2-172.5-427.8-172.4z"/>
<path class="st0" d="M-469.5-184.6v26.1h-32.6v-37.4c1.5,0.3,3.1,0.8,4.5,1.4c4,1.5,7.6,3.9,10.5,6.9c1.5,1.6,2.7,3.7,4.5,5
	c2.1,1.4,4.6,1.1,6.9,0.3C-473.6-183.1-471.6-183.8-469.5-184.6z"/>
<g>
	<path class="st1" d="M-202.8-79.4c-2.1-2.5-5.2-3.8-9.1-3.8c-2.5,0-4.6,0.5-6.3,1.4s-3.3,2.6-4.8,4.8c-2.4-4.2-5.9-6.3-10.5-6.3
		c-3.8,0-6.9,1.2-9.3,3.8s-3.6,5.7-3.6,9.7v16.8c0.6,0.1,1.2,0.3,1.8,0.5c1.6,0.6,3.1,1.6,4.3,2.8c0.6,0.6,1.1,1.5,1.8,2
		c0.8,0.6,1.9,0.4,2.8,0.1c0.8-0.3,1.6-0.6,2.5-0.9v-18.3c0-2.3,0.6-3.5,1.9-3.5c0.7,0,1.2,0.2,1.4,0.7c0.2,0.5,0.4,1.4,0.4,2.8
		v17.1c2.1-0.5,4.2-0.6,6.3,0.3c0.8,0.4,1.6,0.9,2.2,1.6c0.6,0.7,1,1.4,1.6,2.1c0.4,0.6,1,1.2,1.6,1.6c0.5,0.3,1,0.4,1.6,0.5v-23.4
		c0-2.2,0.6-3.3,1.9-3.3c0.7,0,1.1,0.2,1.4,0.7c0.2,0.5,0.3,1.4,0.3,2.8v23.4c2.6,0.6,4.8,2.4,6.1,4.8c0.1,0.2,0.2,0.4,0.3,0.7h6.7
		v-30.8C-199.6-73.3-200.7-76.9-202.8-79.4z"/>
</g>
<g>
	<path class="st1" d="M-150.7-35.6h-31.9c-4,0-7.2-1.2-9.7-3.6c-2.5-2.4-3.8-5.5-3.8-9.3c0-4.5,2.1-8,6.3-10.5
		c-2.2-1.5-3.9-3.1-4.8-4.8c-1-1.7-1.4-3.8-1.4-6.3c0-4,1.2-7,3.8-9.2s6.1-3.2,10.8-3.2h30.8v13.2h-28.8c-1.4,0-2.4,0.1-2.8,0.3
		c-0.5,0.2-0.7,0.7-0.7,1.4c0,1.3,1.1,1.9,3.3,1.9h18.4v13.2h-18.1c-1.4,0-2.4,0.1-2.8,0.4c-0.5,0.2-0.7,0.7-0.7,1.4
		c0,1.3,1.2,2,3.5,2h28.8L-150.7-35.6L-150.7-35.6z"/>
</g>
<path class="st2" d="M-206.3-37.8h-6.5v-5.4c2.6,0.6,4.8,2.4,6.1,4.8C-206.5-38.2-206.4-38-206.3-37.8z"/>
<path class="st2" d="M-216.4-43.4v5.6h-13.2v-11.7c2.1-0.5,4.2-0.6,6.3,0.3c0.8,0.4,1.6,0.9,2.2,1.6c0.6,0.7,1,1.4,1.6,2.1
	c0.4,0.6,1,1.2,1.6,1.6C-217.5-43.6-217-43.5-216.4-43.4z"/>
<path class="st2" d="M-233.3-54.5v10.5h-13.2V-59c0.6,0.1,1.2,0.3,1.8,0.5c1.6,0.6,3.1,1.6,4.3,2.8c0.6,0.6,1.1,1.5,1.8,2
	c0.8,0.6,1.9,0.4,2.8,0.1C-235-53.9-234.1-54.2-233.3-54.5z"/>
<path d="M106.5-288.2c-3.8-1.9-5.7-6.1-9.2-8.4c-3.9-2.5-8.6-1.3-12.8-2.6c-2.4-0.8-3.8-2.7-5.2-4.6c-1.3-1.8-2.8-3.3-4.8-4.4
	c-3.7-2.2-8.3-2.8-12.5-2c-0.8,0.1-1.6,0.4-2.4,0.6c-2.4-2.7-4.6-5.7-7.6-7.9c-1.8-1.3-4.2-2.1-6.5-1.7c-2.6,0.5-3.6,2.5-4,4.9
	c-0.2,1.2-0.4,2.4-1.3,3.4c-0.8,0.9-2,1.5-3.2,1.8c-2.8,0.7-5.5-0.1-8.1-1.2c-1.3-0.6-2.6-1.2-3.9-1.8c-1.4-0.6-3-1.4-4.5-1.5
	c-2.8-0.1-3.3,2.5-4.4,4.4c-1.5,2.5-4.5,0.8-5.9-0.9c-1.8-2.1-2-5.2-3-7.7c-0.9-2-2.7-4.9-5.3-4.4c-2.3,0.5-3.2,3.1-3.4,5.2
	c-0.1,1.4,0,3.1-1.1,4.1c-1,1-2.6,1.2-3.7,2c-2.1,1.5-2.5,4-2.9,6.3c0,0.1,0,0.1,0,0.2c-2.2,1.4-4.1,3.5-4.9,6.1
	c-0.2,0.7,0.4,1.2,1,1.3c2.3,0.3,4.1-1.5,5-3.5c0.4-0.9,0.6-1.8,0.8-2.7c1.2-0.7,2.6-1.2,4-1.5c-0.8,1.1-1.4,2.3-2.1,3.5
	c-1.3,2.2-3.1,4.1-5.4,5.3c-4,2.1-11.1,0.5-10.7-5.1c0.2-2.6,2-4.3,4.5-4.5c2.5-0.2,4.7-0.4,6.3-2.5c1.3-1.8,1.8-4.1,1.9-6.2
	c0.1-2.8-0.6-6.3,1.2-8.7c1-1.4,3.8-2.8,5.1-1.1c0.8,1,2.5,0,1.7-1c-1.3-1.7-3.4-2.1-5.4-1.4c-2.3,0.9-3.7,2.8-4.3,5.1
	c-0.6,2.9,0,5.9-0.5,8.7c-0.2,1.2-0.6,2.5-1.4,3.5c-1,1.2-2.3,1.4-3.8,1.5c-2.5,0.1-4.7,0.6-6.2,2.9c-1.2,1.8-1.6,4.3-0.9,6.4
	c1.6,4.8,7.7,6.4,12.1,4.7c1.1-0.4,2-1,2.9-1.6c0.1,0.6,0.8,1.1,1.5,0.7c3.9-2.1,8.5-0.5,11.9,1.7c3.6,2.3,6.4,5.7,9.8,8.2
	c2.9,2.2,6.9,4.5,10.7,3.2c1.7-0.6,2.9-1.9,3.6-3.5c0.7-1.6,1-3.6,2.2-5c2.5-2.9,7.2-2,10.6-1c-0.2,2,0.8,3.9,2.2,5.4
	c1.4,1.6,3.9,3.6,6.1,2.8c1-0.4,1.8-1.2,2.6-1.9c1-0.8,2.1-1.5,3.3-1.9c2.3-0.9,4.8-1.2,7.2-1.2c10,0.1,19.1,5.6,29.1,6
	c5.1,0.2,10.2-1,13.9-4.8C107.2-287.1,107.1-288,106.5-288.2z M38.1-306.3c1-0.8,2.4-1,3.6-0.7c2.9,0.6,4.7,3.3,6.1,5.6
	c0.3,0.6,1.1,0.6,1.6,0.2c2.8-2.6,6.2-4.8,9.8-6.2c1.2,1.2,2.5,2.4,4,3.3c2.3,1.3,4.8,1.8,7.4,1.9c2.8,0.2,5.8,0.1,8.2,1.9
	c2.1,1.5,2.8,4.1,0.7,6c-2.1,1.9-5,1.7-7.5,0.8c-3-1.1-5.8-3-8.5-4.6c-1.3-0.8-2.6-1.5-4-2.3c-1.1-0.7-2.3-1.4-3.7-1.6
	c-2.5-0.5-4.2,1.1-4.5,3.5c-0.2,1.1,0,2.4-0.7,3.3c-0.7,1-2.1,1-3.2,0.7c-2.7-0.8-4.2-3.8-6.3-5.4c-1.6-1.2-3.4-2.1-5.3-2.7
	c0,0,0,0,0-0.1C36.7-303.9,37-305.4,38.1-306.3z M74-306.2c1.2,0.8,2.2,1.8,3.1,2.9c-1.9-0.6-4-0.7-6.1-0.8
	c-3.1-0.1-5.8-0.7-8.3-2.6c-0.5-0.4-1-0.8-1.4-1.2C65.5-309.1,70-308.8,74-306.2z M43.3-312.3c0.3-1.2,0.2-2.7,0.9-3.8
	c0.6-1,1.8-1.3,2.9-1.2c2.4,0.1,4.3,1.6,6,3.3c1.6,1.6,3,3.4,4.5,5.1c-3.2,1.3-6.1,3.3-8.8,5.6c-1.8-2.7-4.4-5.4-7.6-5.7
	C42.2-310,42.9-311,43.3-312.3z M18.6-309.4c0.4-1,0.8-2.3,2.1-2.2c1.6,0.1,3.3,1.1,4.7,1.8c2.4,1.1,4.9,2.4,7.6,2.8
	c1,0.1,2,0.2,3,0.1c-0.2,0.2-0.3,0.4-0.4,0.6c-0.7,1.1-1,2.3-1.7,3.3c-2.1-0.3-4.3-0.3-6.4,0.3c-0.5,0.1-0.9,0.3-1.3,0.4
	c-1.1-1-1.7-2.5-2.9-3.6c-1.8-1.8-4.3-1.2-6.5-0.9C17.5-307.5,18.1-308.4,18.6-309.4z M14.4-304.7c1.3,0,2.6-0.2,4-0.4
	c1.6-0.2,3-0.3,4,1.1c0.6,0.9,1.2,1.7,1.8,2.4c-1.5,0.8-2.9,1.6-4.3,2.5c-2.2,1.2-4.5,2.2-7.1,1.8c-1-0.2-2-0.6-2.8-1.4
	c-1-1.1-1-2.6-1.2-4c-0.1-0.8-0.4-1.6-0.7-2.3C10.2-304.8,12.3-304.7,14.4-304.7z M-11.3-299.5c0.4-0.7,0.9-1.3,1.4-1.9
	C-10.2-300.5-10.7-299.9-11.3-299.5z M-6.4-307.5c1-2.7,3.9-2.5,5.7-4.4c1.9-2.1,0.8-4.9,1.9-7.2c1.7-3.5,4.2,1.5,4.8,3.1
	c0.8,2.3,1.2,4.9,2.8,6.9c0.7,0.9,1.6,1.7,2.7,2.3c-1.7-0.1-3.4-0.2-5.1-0.4c-0.4-0.3-0.9-0.6-1.4-0.8c-2-0.9-4.3-0.6-6,0.8
	c-0.5,0-0.9,0.1-1.4,0.2c-1.5,0.3-3,0.7-4.4,1.3C-6.8-306.3-6.6-306.9-6.4-307.5z M80.9-286.2c-8.1-2.5-17.6-5.8-25.8-2
	c-1.1,0.5-2.1,1.1-3,1.8c-1.2,0.9-2,2.2-3.6,1.3c-2.2-1.1-4.7-3.8-4-6.5c0.1-0.5-0.2-1.1-0.7-1.2c-3.4-1-7.3-1.8-10.7-0.5
	c-1.5,0.6-2.8,1.7-3.6,3.1c-1,1.7-1.2,3.7-2.3,5.3c-2.8,4-8.7,0.2-11.4-1.9c-3.5-2.8-6.4-6.2-10.2-8.4c-3.5-2.1-7.8-3.2-11.7-1.8
	c0.5-0.5,0.9-1,1.4-1.5c1.6-2.1,2.5-4.8,4.4-6.6c0.1-0.1,0.2-0.1,0.2-0.2c1.9-0.2,3.9-0.1,5.8,0c0.2,0.2,0.4,0.5,0.6,0.8
	c0.7,1.1,0.7,2.6,0.9,3.9c0.2,1.3,0.7,2.6,1.7,3.5c1.6,1.6,4.1,2.1,6.3,1.9c2.8-0.3,5.2-1.8,7.6-3.2c1-0.6,2.1-1.2,3.2-1.7
	c0.2,0.1,0.4,0.2,0.6,0.3c2.6,1.1,5.9,0.7,8-1.2c1.5,0.4,3,0.9,4.3,1.8c2.4,1.5,3.9,4,6.2,5.7c1.8,1.3,4.6,1.8,6.5,0.3
	c0.9-0.7,1.3-1.7,1.5-2.8c0.2-1.1-0.1-3,0.9-3.8c1.1-1,2.9,0.1,3.9,0.7c1.5,0.9,3.1,1.8,4.6,2.7c4.7,2.7,10.7,7.5,16.4,4.9
	c2.1-1,3.8-2.9,3.8-5.3c0-0.4,0-0.7-0.1-1c0.1,0.1,0.3,0.1,0.4,0.2c4,1.6,8.7,0.3,12.6,2.3c3.6,1.9,5.4,5.8,8.7,8.1
	C97.9-281.9,88.2-284,80.9-286.2z"/>
<path class="st0" d="M-234.1-51c-1.6,1.2-0.8,3.6-2.3,5c-0.7,0.7-1.7,1-2.6,1.2c-1,0.2-2.4,0.3-3.4-0.1c-0.5-0.2-1-0.6-1-1.2
	c0-0.1,0-0.2,0-0.3c0.1-0.2,0.1-0.2,0.3-0.1c0.4,0.1,0.7,0.2,1.1,0.3c1.1,0.2,2.2,0.3,3.2-0.4c0.8-0.6,1.2-1.5,0.9-2.5
	c-0.4-1-1.4-1.5-2.4-1.7c-0.7-0.2-1.4-0.3-2-0.6c-0.5-0.3-0.9-0.8-1.3-1.3c-0.2-0.3-1.6-3-1.1-3.1c0.5-0.1,0.3-0.8-0.2-0.8
	c-1.2,0.2-0.5,1.8-0.3,2.4c0.4,1,0.9,2.1,1.8,2.9c1,0.9,2.2,1,3.4,1.4c0.6,0.2,1.2,0.6,1.4,1.2c0.2,0.6-0.3,1.2-0.8,1.5
	c-0.6,0.3-1.3,0.3-1.9,0.2c-0.4-0.1-0.7-0.2-1.1-0.2c-0.3-0.1-0.7-0.3-1.1-0.2c-1,0.4-0.6,1.9-0.1,2.5c0.8,1,2.2,1,3.4,1
	c1.1,0,2.2-0.2,3.2-0.7c1-0.5,1.9-1.2,2.2-2.3c0.4-1,0.2-2.6,1.2-3.4C-233.2-50.6-233.6-51.3-234.1-51z"/>
<path class="st0" d="M-217.3-39.9c-0.6,0.2-1.2,0.5-1.8,0.3c-0.7-0.2-0.7-0.8-0.7-1.4c0-0.9-0.3-1.8-1.2-2.2
	c-0.8-0.4-1.8-0.2-2.4,0.4c-0.7,0.7-0.6,1.7-0.8,2.6c-0.1,0.5-0.3,0.9-0.8,1c-0.6,0.2-1.1-0.3-1.2-0.9c-0.1-0.6,0.5-1.1,0.8-1.5
	c0.4-0.4,0.8-0.8,1.2-1.3c0.6-0.8,1.1-1.8,1-2.9c-0.1-0.8-0.7-1.5-1.5-1.8c-0.4-0.1-0.9-0.1-1.3,0.1c-0.5,0.2-0.7,0.7-1.1,1.1
	c-0.8,0.8-2,1-3,0.6c-0.5-0.2-0.9,0.5-0.4,0.7c0.8,0.4,1.8,0.4,2.6,0.1c0.4-0.1,0.8-0.3,1.1-0.6c0.4-0.3,0.7-1,1.1-1.2
	c0.4-0.2,0.9,0,1.2,0.2c0.5,0.4,0.5,1,0.4,1.6c-0.3,1.2-1.3,2-2,2.8c-0.7,0.7-1.3,1.6-0.8,2.7c0.4,0.8,1.4,1.2,2.3,0.8
	c0.9-0.4,1.1-1.3,1.2-2.2c0.1-0.5,0.1-1,0.4-1.4c0.3-0.4,0.9-0.6,1.4-0.5c1.4,0.4,0.5,2.2,1.2,3.1c0.8,1,2.2,0.7,3.3,0.3
	C-216.6-39.3-216.8-40.1-217.3-39.9z"/>
<path class="st0" d="M-210.9-40.4c-0.3,0-0.7,0.1-0.9,0.3c-0.2,0.1-0.3,0.4-0.1,0.5c0.1,0.2,0.4,0.3,0.6,0.2c0,0,0.1,0,0.1-0.1
	c0,0,0.1,0,0.1,0c0,0,0,0,0.1,0c0,0,0.1,0,0.1,0c0,0,0.1,0,0.1,0c-0.1,0-0.1,0,0,0c0,0,0,0,0.1,0c0.1,0,0.1,0,0.2,0c0,0,0,0,0,0
	c0,0,0.1,0,0.1,0c0.1,0,0.1,0,0.2,0.1c0,0,0.1,0,0.1,0c0,0,0,0,0,0c0.1,0,0.1,0.1,0.2,0.1c0,0,0.1,0,0.1,0.1c0,0,0,0,0,0
	c0,0,0,0,0,0c0.1,0,0.1,0.1,0.1,0.1c0,0,0,0,0.1,0.1c0,0,0,0,0.1,0.1c0,0,0.1,0.1,0.1,0.1c0,0,0,0.1,0.1,0.1c0,0,0,0,0,0s0,0,0,0
	c0,0.1,0,0.1,0.1,0.2c0,0,0,0,0,0.1c0,0,0,0,0,0c0,0,0,0.1,0,0.1c0,0.1,0,0.2,0,0.2c0,0.2,0.2,0.4,0.4,0.4c0.2,0,0.4-0.2,0.4-0.4
	C-208.6-39.4-209.8-40.4-210.9-40.4z"/>
<path class="st1" d="M-157.4-52.3h-45.8c-3,0-5.4-2.4-5.4-5.5v-2.5c0-3,2.4-5.5,5.4-5.5h45.8c3,0,5.4,2.4,5.4,5.5v2.5
	C-152-54.7-154.4-52.3-157.4-52.3z"/>
<g>
	<circle class="st3" cx="74.7" cy="83" r="66.1"/>
	<g>
		<path class="st0" d="M98.1,49.6c-3.3-3.9-8-5.8-14.1-5.8c-3.9,0-7.1,0.7-9.8,2.2c-2.6,1.5-5.1,4-7.4,7.4
			c-3.8-6.4-9.2-9.6-16.2-9.6c-5.9,0-10.7,1.9-14.4,5.8s-5.5,8.9-5.5,15v25.9c1,0.2,1.9,0.5,2.8,0.8c2.5,0.9,4.7,2.4,6.6,4.3
			c1,1,1.7,2.3,2.8,3.1c1.3,0.9,2.9,0.7,4.3,0.2c1.2-0.4,2.5-0.9,3.8-1.4V69.3c0-3.6,1-5.5,3-5.5c1.1,0,1.8,0.4,2.2,1.1
			c0.4,0.7,0.6,2.2,0.6,4.3v26.3c3.2-0.8,6.5-0.9,9.7,0.5c1.3,0.6,2.4,1.4,3.3,2.5c0.9,1,1.6,2.2,2.4,3.3c0.7,0.9,1.5,1.8,2.5,2.4
			c0.8,0.5,1.6,0.6,2.4,0.7V69c0-3.4,1-5.1,3-5.1c1.1,0,1.8,0.4,2.1,1.1c0.4,0.7,0.5,2.2,0.5,4.4v36c4,0.9,7.4,3.7,9.5,7.3
			c0.2,0.3,0.4,0.7,0.5,1H103V66.3C103,59,101.4,53.4,98.1,49.6z"/>
	</g>
	<g>
		<path class="st0" d="M178.4,117.2h-49.2c-6.1,0-11.1-1.8-14.9-5.6c-3.9-3.7-5.8-8.5-5.8-14.4c0-7,3.2-12.4,9.6-16.2
			c-3.5-2.3-5.9-4.8-7.4-7.4c-1.5-2.6-2.2-5.9-2.2-9.8c0-6.1,1.9-10.8,5.8-14.1c3.9-3.3,9.4-4.9,16.7-4.9h47.5v20.3h-44.4
			c-2.2,0-3.7,0.2-4.4,0.5s-1.1,1.1-1.1,2.1c0,2,1.7,3,5.1,3h28.3v20.3h-27.9c-2.2,0-3.6,0.2-4.4,0.6c-0.7,0.4-1.1,1.1-1.1,2.2
			c0,2,1.8,3,5.4,3h44.4L178.4,117.2L178.4,117.2z"/>
	</g>
	<path class="st3" d="M92.7,113.7h-10v-8.4c4,0.9,7.4,3.7,9.5,7.3C92.3,113,92.5,113.4,92.7,113.7z"/>
	<path class="st3" d="M77,105v8.7H56.7V95.6c3.2-0.8,6.5-0.9,9.7,0.5c1.3,0.6,2.4,1.4,3.3,2.5c0.9,1,1.6,2.2,2.4,3.3
		c0.7,0.9,1.5,1.8,2.5,2.4C75.4,104.8,76.2,105,77,105z"/>
	<path class="st4" d="M51,88v16.3H30.7V81c1,0.2,1.9,0.5,2.8,0.8c2.5,0.9,4.7,2.4,6.6,4.3c1,1,1.7,2.3,2.8,3.1
		c1.3,0.9,2.9,0.7,4.3,0.2C48.5,89,49.7,88.5,51,88z"/>
	<path class="st0" d="M49.9,93.3c-2.5,1.9-1.3,5.6-3.5,7.6c-1.1,1-2.6,1.5-4,1.8c-1.6,0.3-3.6,0.5-5.2-0.1c-0.8-0.3-1.5-1-1.6-1.9
		c0-0.1,0-0.3,0-0.4c0.2-0.3,0.1-0.2,0.5-0.2c0.6,0.1,1.1,0.3,1.7,0.4c1.7,0.4,3.4,0.4,4.9-0.6c1.2-0.9,1.9-2.3,1.3-3.8
		c-0.6-1.5-2.2-2.3-3.7-2.7c-1.1-0.3-2.2-0.4-3.1-1c-0.8-0.5-1.4-1.2-2-1.9c-0.3-0.4-2.4-4.7-1.7-4.7c0.8-0.1,0.5-1.3-0.3-1.2
		c-1.8,0.3-0.8,2.8-0.4,3.8c0.7,1.6,1.5,3.3,2.8,4.5c1.5,1.3,3.4,1.5,5.2,2.1c0.9,0.3,1.9,0.9,2.2,1.8c0.3,1-0.4,1.9-1.2,2.3
		c-0.9,0.5-2,0.5-3,0.4c-0.6-0.1-1.1-0.2-1.7-0.4c-0.5-0.1-1.1-0.4-1.7-0.2c-1.6,0.6-1,2.9-0.2,3.9c1.2,1.5,3.4,1.5,5.2,1.5
		c1.7-0.1,3.4-0.4,4.9-1.1c1.6-0.7,2.9-1.9,3.5-3.6c0.6-1.6,0.3-4.1,1.8-5.2C51.1,93.9,50.5,92.8,49.9,93.3z"/>
	<path class="st0" d="M75.8,110.5c-0.9,0.3-1.9,0.8-2.8,0.5c-1.1-0.3-1.1-1.2-1.1-2.1c0.1-1.4-0.5-2.8-1.8-3.4
		c-1.2-0.6-2.7-0.3-3.6,0.7c-1.1,1.1-0.9,2.6-1.2,4c-0.2,0.7-0.5,1.4-1.2,1.6c-0.9,0.2-1.8-0.4-1.8-1.3c-0.1-0.9,0.7-1.7,1.3-2.3
		c0.6-0.7,1.2-1.3,1.8-2c1-1.2,1.8-2.8,1.6-4.4c-0.2-1.3-1-2.4-2.3-2.7c-0.6-0.2-1.3-0.2-1.9,0.1c-0.8,0.4-1.1,1.1-1.7,1.7
		c-1.2,1.2-3.1,1.6-4.6,0.9c-0.7-0.3-1.4,0.8-0.6,1.1c1.3,0.6,2.7,0.7,4.1,0.2c0.6-0.2,1.2-0.5,1.7-0.9c0.6-0.5,1-1.5,1.7-1.8
		c0.6-0.3,1.3,0,1.8,0.4c0.7,0.6,0.8,1.6,0.6,2.4c-0.4,1.8-1.9,3.1-3.1,4.4c-1,1.1-1.9,2.5-1.2,4.1c0.7,1.3,2.2,1.8,3.5,1.3
		c1.4-0.6,1.7-2,1.8-3.3c0.1-0.7,0.1-1.6,0.6-2.2c0.5-0.7,1.4-1,2.1-0.7c2.2,0.7,0.8,3.3,1.9,4.7c1.3,1.6,3.4,1.1,5,0.4
		C76.8,111.4,76.5,110.2,75.8,110.5z"/>
	<path class="st0" d="M85.6,109.6c-0.5,0-1,0.1-1.5,0.4c-0.3,0.2-0.4,0.6-0.2,0.8c0.2,0.3,0.6,0.4,0.8,0.2c0.1,0,0.1-0.1,0.2-0.1
		c0,0,0.1,0,0.1-0.1c0,0,0.1,0,0.1,0c0.1,0,0.1,0,0.2-0.1c0,0,0.1,0,0.1,0c-0.1,0-0.1,0,0,0c0,0,0.1,0,0.1,0c0.1,0,0.2,0,0.3,0
		c0,0,0,0,0.1,0c0,0,0.1,0,0.1,0c0.1,0,0.2,0.1,0.3,0.1c0,0,0.1,0.1,0.1,0.1c0,0,0.1,0,0.1,0c0.1,0.1,0.2,0.1,0.3,0.2
		c0.1,0,0.1,0.1,0.1,0.1c0,0,0,0,0,0c0,0,0,0,0,0c0.1,0.1,0.2,0.1,0.2,0.2c0,0,0.1,0.1,0.1,0.1c0,0,0.1,0.1,0.1,0.1
		c0.1,0.1,0.1,0.1,0.1,0.2c0,0.1,0.1,0.1,0.1,0.1c0,0,0,0,0,0c0,0,0,0,0,0c0,0.1,0.1,0.2,0.1,0.3c0,0,0,0.1,0,0.1c0,0.1,0,0.1,0,0
		c0,0,0,0.1,0,0.1c0,0.1,0,0.2,0,0.4c0,0.3,0.3,0.6,0.6,0.6c0.4,0,0.6-0.3,0.6-0.6C89.2,111.2,87.4,109.6,85.6,109.6z"/>
	<path class="st0" d="M171,91.4H94.5c-3,0-5.4-2.4-5.4-5.4v-9.8c0-3,2.4-5.4,5.4-5.4H171c3,0,5.4,2.4,5.4,5.4v9.8
		C176.4,88.9,174,91.4,171,91.4z"/>
</g>
<rect x="244.3" y="3.7" class="st5" width="72.5" height="14.3"/>
<rect x="244.3" y="22.1" class="st6" width="72.5" height="14.3"/>
<rect x="244.6" y="40.5" class="st7" width="72.5" height="14.3"/>
<rect x="245.7" y="60.9" class="st1" width="72.5" height="14.3"/>
<rect x="246" y="79.9" class="st8" width="72.5" height="14.3"/>
<rect x="328.4" y="3.7" class="st9" width="72.5" height="14.3"/>
<rect x="328.4" y="22.1" class="st10" width="72.5" height="14.3"/>
<rect x="328.7" y="40.5" class="st2" width="72.5" height="14.3"/>
<rect x="329.8" y="60.9" class="st11" width="72.5" height="14.3"/>
<rect x="330.1" y="79.9" class="st12" width="72.5" height="14.3"/>
</svg>
